<?xml version="1.0" encoding="UTF-8" standalone="no"?>
<!DOCTYPE svg PUBLIC "-//W3C//DTD SVG 1.1//EN" "http://www.w3.org/Graphics/SVG/1.1/DTD/svg11.dtd">
<svg width="100%" height="100%" viewBox="0 0 512 512" version="1.1" xmlns="http://www.w3.org/2000/svg" xmlns:xlink="http://www.w3.org/1999/xlink" xml:space="preserve" xmlns:serif="http://www.serif.com/" style="fill-rule:evenodd;clip-rule:evenodd;stroke-linejoin:round;stroke-miterlimit:2;">
    <g transform="matrix(1.89501,-2.27229,2.8362,0.842806,-2473.92,2285.36)">
        <path d="M1030.53,223.348C1034.96,218.925 1040.62,216.458 1045.28,216.923C1049.94,217.388 1052.85,220.711 1052.85,225.576L1052.85,270.579C1052.85,275.028 1050.41,280.141 1046.37,284.186C1042.32,288.232 1037.21,290.667 1032.76,290.667L987.759,290.667C982.895,290.667 979.572,287.76 979.106,283.099C978.641,278.437 981.108,272.773 985.531,268.351L1030.53,223.348ZM922.868,336.386C922.186,336.917 921.496,337.449 920.798,337.98C917.119,340.783 913.048,339.815 912.066,336.678C911.084,333.54 913.711,329.659 917.241,326.611C976.242,275.659 975.792,245.268 975.792,245.268C976.198,243.348 978.21,241.325 980.281,240.753C982.353,240.18 983.705,241.273 983.299,243.192C983.299,243.192 983.317,275.935 947.136,314.42C957.989,310.019 970.599,306.371 982.573,306.379C991.201,306.384 1010.73,307.545 1021.8,306.79C1030.89,306.168 1038.96,305.892 1049.36,302.996C1060.74,299.827 1069.74,293.283 1081.04,283.319C1088.83,276.457 1098.17,274.204 1101.76,278.12C1105.36,282.036 1101.73,290.499 1094.06,297.511C1076.55,313.523 1060,315.988 1047.82,317.729C1035.62,319.473 1019.36,320.336 1008.74,319.441C1000.8,318.772 993.073,317.313 984.793,317.15C963.422,316.73 933.151,331.142 922.868,336.386Z" style="fill:rgb(134,57,181);"/>
    </g>
</svg>
