<?xml version="1.0" encoding="UTF-8" standalone="no"?>
<!DOCTYPE svg PUBLIC "-//W3C//DTD SVG 1.1//EN" "http://www.w3.org/Graphics/SVG/1.1/DTD/svg11.dtd">
<svg width="100%" height="100%" viewBox="0 0 722 350" version="1.1" xmlns="http://www.w3.org/2000/svg" xmlns:xlink="http://www.w3.org/1999/xlink" xml:space="preserve" xmlns:serif="http://www.serif.com/" style="fill:white;fill-rule:evenodd;clip-rule:evenodd;stroke-linejoin:round;stroke-miterlimit:2;">
    <g transform="matrix(1,0,0,1,-599.032,-365.467)">
        <g>
            <g transform="matrix(-0.505854,-0.626911,-0.768362,0.241921,2013.4,1116.04)">
                <path d="M1030.53,223.348C1034.96,218.925 1040.62,216.458 1045.28,216.923C1049.94,217.388 1052.85,220.711 1052.85,225.576L1052.85,270.579C1052.85,275.028 1050.41,280.141 1046.37,284.186C1042.32,288.232 1037.21,290.667 1032.76,290.667L987.759,290.667C982.895,290.667 979.572,287.76 979.106,283.099C978.641,278.437 981.108,272.773 985.531,268.351L1030.53,223.348Z" style="fill:rgb(134,57,181);"/>
            </g>
            <g transform="matrix(0.596125,-0.714808,0.892201,0.265127,-94.9115,1172.12)">
                <path d="M1030.53,223.348C1034.96,218.925 1040.62,216.458 1045.28,216.923C1049.94,217.388 1052.85,220.711 1052.85,225.576L1052.85,270.579C1052.85,275.028 1050.41,280.141 1046.37,284.186C1042.32,288.232 1037.21,290.667 1032.76,290.667L987.759,290.667C982.895,290.667 979.572,287.76 979.106,283.099C978.641,278.437 981.108,272.773 985.531,268.351L1030.53,223.348Z" style="fill:rgb(134,57,181);"/>
            </g>
            <g transform="matrix(0.863479,0.0508812,-0.0508812,0.863479,136.672,52.0916)">
                <path d="M901.359,659.06C952.196,656.182 954.248,599.657 954.248,589.744L953.798,530.743C953.892,524.162 959.371,518.887 966.027,518.971C972.682,519.055 978.01,524.466 977.916,531.047L977.442,598.45C977.425,614.655 973.054,685.53 903.288,685.53C833.545,685.53 829.155,614.701 829.135,598.466L828.136,524.142C828.021,515.588 834.874,508.249 843.426,508.435C858.825,508.769 859.668,523.663 858.585,541.873L857.855,596.748C857.855,596.748 858.16,661.504 901.359,659.06Z"/>
            </g>
            <g transform="matrix(0.756469,0.184418,-0.186668,0.765698,641.355,-7.32638)">
                <path d="M901.359,659.06C952.196,656.182 954.248,599.657 954.248,589.744L953.798,530.743C953.892,524.162 959.371,518.887 966.027,518.971C972.682,519.055 978.01,524.466 977.916,531.047L977.442,598.45C977.425,614.655 973.054,685.53 903.288,685.53C833.545,685.53 829.155,614.701 829.135,598.466L828.136,524.142C828.021,515.588 834.874,508.249 843.426,508.435C858.825,508.769 859.668,523.663 858.585,541.873L857.855,596.748C857.855,596.748 858.16,661.504 901.359,659.06Z"/>
            </g>
            <g transform="matrix(0.712196,-0.0533965,0.0533965,0.712196,237.48,404.586)">
                <path d="M1068.53,403.981C1111.8,403.981 1111.68,357.718 1111.68,347.805C1111.68,347.593 1111.69,347.382 1111.7,347.171L1112.7,322.751C1113.02,314.699 1123.05,304.996 1131.11,304.67C1131.53,304.653 1145.95,306.458 1145.96,321.417L1144.67,347.171C1144.68,347.382 1144.68,347.593 1144.68,347.805C1144.68,357.718 1144.57,403.981 1187.84,403.981C1231.11,403.981 1236.36,347.427 1236.36,337.513L1235.73,292.509C1234.78,285.33 1239.83,278.73 1247.01,277.779C1254.19,276.828 1260.79,281.884 1261.74,289.062L1261.99,347.902C1261.98,364.107 1257.61,434.981 1187.84,434.981C1156.81,434.981 1138.71,420.958 1128.18,403.961C1117.66,420.958 1099.56,434.981 1068.53,434.981C998.788,434.981 994.398,364.152 994.378,347.918L986.468,277.762C986.363,266.804 994.788,257.76 1005.27,257.576C1015.75,257.393 1024.35,266.14 1024.45,277.098L1025.38,347.596L1025.38,347.805C1025.38,357.718 1025.26,403.981 1068.53,403.981Z" style="fill:rgb(134,57,181);"/>
            </g>
            <g transform="matrix(0.890645,-0.150322,0.150322,0.890645,-47.7515,210.618)">
                <path d="M828.135,568.079C828.135,559.525 835.08,552.579 843.635,552.579C852.189,552.579 859.135,559.525 859.135,568.079C859.135,568.079 863.338,616.998 856.629,666.72C856.132,670.402 853.613,674.347 847.826,675.103C842.039,675.858 836.949,669.511 837.038,663.626C837.383,640.565 828.135,568.079 828.135,568.079Z"/>
            </g>
            <g transform="matrix(1.01321,-0.207729,0.207729,1.01321,-305.09,507.614)">
                <path d="M911.821,376.808C911.821,376.808 924.89,309.913 973.826,270.91C987.827,259.751 1021.63,235.614 1038.18,220.561C1051.8,208.179 1064.38,197.469 1075.95,181.179C1088.61,163.353 1091.22,145.309 1091.33,120.933C1091.4,104.143 1102.43,89.853 1115.42,89.035C1128.41,88.217 1138.02,101.184 1138.4,117.97C1139.3,156.301 1116.98,180.118 1100.41,197.584C1083.8,215.085 1059.02,236.959 1040.15,249.837C1026.05,259.456 1010.86,268.022 997.132,278.577C953.853,311.858 929.53,383.987 929.53,383.987C927.603,390.239 922.69,389.782 916.154,390.079C909.618,390.377 914.308,382.859 911.821,376.808Z"/>
            </g>
            <g transform="matrix(0.908721,0.0859418,-0.0859418,0.908721,295.071,310.843)">
                <path d="M360.742,233.06C356.855,231.4 354.862,226.58 356.294,222.302C357.726,218.025 362.044,215.9 365.931,217.56C365.931,217.56 474.712,238.936 501.499,381.839C503.075,390.247 495.43,397.702 486.889,398.18C478.347,398.658 472.886,391.799 470.547,383.57C431.438,246 360.742,233.06 360.742,233.06Z"/>
            </g>
        </g>
    </g>
</svg>
